<svg width="85" height="85" viewBox="0 0 85 85" fill="none" xmlns="http://www.w3.org/2000/svg">
<path fill-rule="evenodd" clip-rule="evenodd" d="M30.5 25.8644V60.5054L63.5 43.1849L30.5 25.8644ZM35.5 52.2342V34.1356L52.7412 43.1849L35.5 52.2342Z" fill="#F2EADF"/>
<path fill-rule="evenodd" clip-rule="evenodd" d="M42.5 0C19.0279 0 0 19.0279 0 42.5C0 65.9721 19.0279 85 42.5 85C65.9721 85 85 65.9721 85 42.5C85 19.0279 65.9721 0 42.5 0ZM5 42.5C5 21.7893 21.7893 5 42.5 5C63.2107 5 80 21.7893 80 42.5C80 63.2107 63.2107 80 42.5 80C21.7893 80 5 63.2107 5 42.5Z" fill="#F2EADF"/>
</svg>
