<svg width="20" height="20" viewBox="0 0 20 20" fill="none" xmlns="http://www.w3.org/2000/svg">
<path d="M3.91442 17.0711L5.58014 15.3033C6.8408 16.6412 8.57553 17.476 10.494 17.4995C10.5532 17.5002 10.6123 17.5002 10.6715 17.4994C12.5239 17.4737 14.2043 16.6916 15.4512 15.431C15.528 15.3533 15.6031 15.2739 15.6765 15.1928C16.8873 13.8539 17.6345 12.0393 17.6442 10.0394C17.6443 10.0166 17.6444 9.99387 17.6443 9.97109C17.6297 5.87156 14.5159 2.54749 10.6601 2.50052C10.6017 2.49979 10.5434 2.49983 10.485 2.50064C8.63167 2.52581 6.95035 3.3081 5.703 4.56943C5.62751 4.64575 5.55351 4.72393 5.48108 4.80394C4.77421 5.58459 4.22506 6.52729 3.88804 7.57432L5.06296 7.35879C5.31004 7.31346 5.48974 7.60843 5.35566 7.83921L3.18196 11.5804C3.00997 11.8764 2.62565 11.91 2.4127 11.6475L0.0729951 8.76386C-0.0776476 8.5782 0.0176608 8.28433 0.241855 8.2432L1.33688 8.04232C1.37113 7.86029 1.41011 7.67945 1.45377 7.50001C1.79403 6.10157 2.41813 4.78798 3.29343 3.65608C4.6764 1.86768 6.6009 0.643515 8.739 0.192163C10.8771 -0.259188 13.0965 0.0902024 15.0192 1.1808C16.9417 2.2714 18.4485 4.03573 19.2827 6.17317C20.117 8.31062 20.2271 10.689 19.5943 12.9029C18.9615 15.1168 17.6249 17.0294 15.8123 18.3148C13.9996 19.6 11.8232 20.1787 9.6537 19.9518C8.2806 19.8083 6.96406 19.3478 5.79171 18.6143C5.11174 18.1889 4.48029 17.6716 3.91442 17.0711Z" fill="#F2EADF"/>
</svg>
