<svg width="85" height="85" viewBox="0 0 85 85" fill="none" xmlns="http://www.w3.org/2000/svg">
<path d="M40 23H30V59H40V23Z" fill="#F2EADF"/>
<path d="M43 23H53V59H43V23Z" fill="#F2EADF"/>
<path fill-rule="evenodd" clip-rule="evenodd" d="M0 42.5C0 19.0279 19.0279 0 42.5 0C65.9721 0 85 19.0279 85 42.5C85 65.9721 65.9721 85 42.5 85C19.0279 85 0 65.9721 0 42.5ZM42.5 5C21.7893 5 5 21.7893 5 42.5C5 63.2107 21.7893 80 42.5 80C63.2107 80 80 63.2107 80 42.5C80 21.7893 63.2107 5 42.5 5Z" fill="#F2EADF"/>
</svg>
